<svg width="512" height="512" xmlns="http://www.w3.org/2000/svg" class="ionicon">
 <title>Logo Android</title>

 <g>
  <title>Layer 1</title>
  <path fill="#559E84" stroke="#8CD79F" id="svg_1" d="m340.41184,212.68321l28.70043,-55.88566a5.83199,6.55557 0 0 0 -2.10844,-8.9332a5.75766,6.47201 0 0 0 -7.9134,2.37003l-29.05859,56.60731c-22.1859,-11.39439 -47.15602,-17.73726 -74.01156,-17.73726s-51.82566,6.35047 -74.01156,17.73726l-29.05859,-56.60731a5.81172,6.53278 0 1 0 -10.05562,6.56317l28.63285,55.88566c-49.46719,30.11156 -82.9927,86.42261 -88.52734,152.34293l346,0c-5.53465,-65.92032 -39.06016,-122.23137 -88.58816,-152.34293zm-163.84992,97.72584a14.50227,16.30157 0 1 1 14.50227,-16.30157a14.50902,16.30916 0 0 1 -14.50227,16.30157zm158.80859,0a14.50227,16.30157 0 1 1 14.56309,-16.30157a14.50902,16.30916 0 0 1 -14.53605,16.30157l-0.02703,0z"/>
  <polyline stroke-linecap="round" fill="none" id="svg_2" points="211.41818348561435,252.30000102996823 211.41818348561435,252.30000102996823 " stroke="null"/>
 </g>
</svg>